# Blender v2.69 (sub 0) OBJ File: ''
# www.blender.org
o Cube_Cube.001
v -1.078204 1.092170 0.609969
v -1.078204 1.092170 -0.505478
v -1.078204 -0.023277 -0.505478
v -1.078204 -0.023277 0.609969
v 0.037243 1.092170 -0.505478
v 0.037243 -0.023277 -0.505478
v 0.037243 1.092170 0.609969
v 0.037243 -0.023277 0.609969
vn -1.000000 0.000000 0.000000
vn 0.000000 0.000000 -1.000000
vn 1.000000 0.000000 0.000000
vn 0.000000 -0.000000 1.000000
vn 0.000000 -1.000000 -0.000000
vn 0.000000 1.000000 0.000000
s off
f 1//1 2//1 4//1
f 2//2 5//2 3//2
f 5//3 7//3 6//3
f 7//4 1//4 8//4
f 4//5 3//5 8//5
f 2//6 1//6 5//6
f 2//1 3//1 4//1
f 5//2 6//2 3//2
f 7//3 8//3 6//3
f 1//4 4//4 8//4
f 3//5 6//5 8//5
f 1//6 7//6 5//6
o Plane
v -2.500000 -0.000000 2.500000
v 2.500000 -0.000000 2.500000
v 2.500000 0.000000 -2.500000
v -2.500000 0.000000 -2.500000
vn 0.000000 1.000000 0.000000
s off
f 9//7 10//7 12//7
f 10//7 11//7 12//7
o Plane.002_Plane.003
v -2.500000 0.000000 -2.500000
v 2.500000 0.000000 -2.500000
v 2.500000 5.000000 -2.499999
v -2.500000 5.000000 -2.499999
vn 0.000000 -0.000000 1.000000
s off
f 13//8 14//8 16//8
f 14//8 15//8 16//8
o Cube.001_Cube.002
v -0.608344 2.136829 0.687744
v -1.393631 2.136829 -0.104434
v -1.393631 1.021383 -0.104434
v -0.608344 1.021383 0.687744
v -0.601453 2.136829 -0.889721
v -0.601453 1.021383 -0.889721
v 0.183834 2.136829 -0.097543
v 0.183834 1.021383 -0.097543
vn -0.710189 -0.000000 0.704011
vn -0.704011 0.000000 -0.710189
vn 0.710189 0.000000 -0.704011
vn 0.704011 -0.000000 0.710189
vn 0.000000 -1.000000 0.000000
vn -0.000000 1.000000 -0.000000
s off
f 17//9 18//9 20//9
f 18//10 21//10 19//10
f 21//11 23//11 22//11
f 23//12 17//12 24//12
f 20//13 19//13 24//13
f 18//14 17//14 21//14
f 18//9 19//9 20//9
f 21//10 22//10 19//10
f 23//11 24//11 22//11
f 17//12 20//12 24//12
f 19//13 22//13 24//13
f 17//14 23//14 21//14
o Plane.005_Plane.006
v -2.500000 5.000000 2.500001
v 2.500000 5.000000 2.500001
v 2.500000 5.000000 -2.499999
v -2.500000 5.000000 -2.499999
vn 0.000000 1.000000 0.000000
s off
f 25//15 26//15 28//15
f 26//15 27//15 28//15
o Plane.001_Plane.002
v -2.500000 -0.000000 2.500000
v 2.500000 -0.000000 2.500000
v 2.500000 0.000000 -2.500000
v -2.500000 0.000000 -2.500000
vn 0.000000 1.000000 0.000000
s off
f 29//16 30//16 32//16
f 30//16 31//16 32//16
o Plane.004_Plane.005
v -2.500000 -0.000000 2.500000
v 2.500000 -0.000000 2.500000
v 2.500000 5.000000 2.500001
v -2.500000 5.000000 2.500001
vn 0.000000 -0.000000 1.000000
s off
f 33//17 34//17 36//17
f 34//17 35//17 36//17
o Plane.003_Plane.004
v -2.500000 -0.000000 2.500000
v -2.500000 0.000000 -2.500000
v -2.500000 5.000000 -2.499999
v -2.500000 5.000000 2.500001
vn 1.000000 0.000000 0.000000
s off
f 37//18 38//18 40//18
f 38//18 39//18 40//18
