# Blender v2.74 (sub 0) OBJ File: ''
# www.blender.org
mtllib room2_tris.mtl
o Plane.003_Plane.000
v -5.022344 -2.004271 -0.011318
v 5.022336 -2.004271 -0.011318
v -5.022348 2.995729 -0.011317
v 5.022333 2.995729 -0.011317
vn 0.000000 0.000000 -1.000000
usemtl None
s 1
f 1//1 3//1 2//1
f 2//1 3//1 4//1
o Plane.001_Plane.002
v -5.022340 -2.004269 -9.124492
v -5.022340 -2.004270 -0.011318
v 5.022340 -2.004269 -9.124492
v 5.022340 -2.004270 -0.011318
vn 0.000000 1.000000 0.000000
usemtl None
s 1
f 5//2 6//2 7//2
f 6//2 8//2 7//2
o Plane.005_Plane.006
v -5.022344 2.995731 -9.124491
v 5.022336 2.995731 -9.124491
v -5.022344 2.995730 -0.011317
v 5.022336 2.995730 -0.011317
vn 0.000000 -1.000000 -0.000000
usemtl None
s 1
f 9//3 10//3 11//3
f 11//3 10//3 12//3
o Plane.003_Plane.004
v -5.022340 -2.004270 -9.100000
v 5.022340 -2.004270 -9.100000
v -5.022344 2.995730 -9.099999
v 5.022336 2.995730 -9.099999
vn 0.000000 -0.000000 1.000000
usemtl None
s 1
f 13//4 14//4 15//4
f 14//4 16//4 15//4
o Cube_Cube.001
v -1.561157 -0.912100 -5.755928
v 1.648111 -0.912100 -5.755928
v -1.561157 -2.004270 -5.755928
v 1.648111 -0.912100 -3.955959
v 1.648111 -2.004270 -5.755928
v -1.561157 -0.912100 -3.955959
v 1.648111 -2.004271 -3.955959
v -1.561157 -2.004271 -3.955959
vn 0.000000 0.000000 -1.000000
vn 1.000000 0.000000 0.000000
vn 0.000000 0.000000 1.000000
vn -1.000000 0.000000 0.000000
vn 0.000000 -1.000000 -0.000000
vn 0.000000 1.000000 0.000000
usemtl None
s 1
f 17//5 18//5 19//5
f 18//6 20//6 21//6
f 20//7 22//7 23//7
f 22//8 17//8 24//8
f 19//9 21//9 24//9
f 18//10 17//10 20//10
f 18//5 21//5 19//5
f 20//6 23//6 21//6
f 22//7 24//7 23//7
f 17//8 19//8 24//8
f 21//9 23//9 24//9
f 17//10 22//10 20//10
o Plane.004_Plane.005
v -5.000000 -2.004269 -9.124492
v -5.000002 2.995731 -9.124491
v -5.000000 -2.004270 -0.011318
v -5.000002 2.995730 -0.011317
vn 1.000000 0.000000 0.000000
usemtl None
s 1
f 25//11 26//11 27//11
f 27//11 26//11 28//11
o Plane.002_Plane.003
v 5.000000 -2.004269 -9.124492
v 5.000000 -2.004270 -0.011318
v 4.999998 2.995731 -9.124491
v 4.999998 2.995730 -0.011317
vn -1.000000 -0.000000 -0.000000
usemtl None
s 1
f 29//12 30//12 31//12
f 30//12 32//12 31//12
