# Blender v2.69 (sub 0) OBJ File: ''
# www.blender.org
mtllib room.mtl
o Plane
v -2.500000 -2.000000 -5.500000
v -2.500000 -2.000000 -0.500000
v 2.500000 -2.000000 -5.500000
v 2.500000 -2.000000 -0.500000
vn -0.000000 1.000000 0.000000
usemtl None
s off
f 1//1 2//1 3//1
f 2//1 4//1 3//1
o Plane.003_Plane.004
v -2.500000 -2.000000 -5.500000
v 2.500000 -2.000000 -5.500000
v -2.500002 3.000000 -5.500000
v 2.499998 3.000000 -5.500000
vn -0.000000 0.000000 1.000000
usemtl None
s off
f 5//2 6//2 7//2
f 6//2 8//2 7//2
o Plane.005_Plane.006
v -2.500002 3.000000 -5.500000
v -2.500002 3.000000 -0.500000
v 2.499998 3.000000 -5.500000
v 2.499998 3.000000 -0.500000
vn 0.000000 -1.000000 0.000000
usemtl None
s off
f 9//3 11//3 10//3
f 10//3 11//3 12//3
o Plane.001_Plane.002
v -2.500000 -2.000000 -5.500000
v -2.500000 -2.000000 -0.500000
v 2.500000 -2.000000 -5.500000
v 2.500000 -2.000000 -0.500000
vn -0.000000 1.000000 0.000000
usemtl None
s off
f 13//4 14//4 15//4
f 14//4 16//4 15//4
o Plane.004_Plane.005
v -2.500000 -2.000000 -5.500000
v -2.500000 -2.000000 -0.500000
v -2.500002 3.000000 -5.500000
v -2.500002 3.000000 -0.500000
vn 1.000000 0.000000 0.000000
usemtl None
s off
f 17//5 19//5 18//5
f 18//5 19//5 20//5
o Plane.002_Plane.003
v 2.500000 -2.000000 -5.500000
v 2.500000 -2.000000 -0.500000
v 2.499998 3.000000 -5.500000
v 2.499998 3.000000 -0.500000
vn -1.000000 -0.000000 0.000000
usemtl None
s off
f 21//6 22//6 23//6
f 22//6 24//6 23//6
o Cube_Cube.001
v -0.609969 -0.907830 -4.078204
v 0.505478 -0.907830 -4.078204
v -0.609969 -2.023277 -4.078204
v 0.505478 -0.907830 -2.962757
v 0.505478 -2.023277 -4.078204
v -0.609969 -0.907830 -2.962757
v 0.505478 -2.023277 -2.962757
v -0.609969 -2.023277 -2.962757
vn 0.000000 0.000000 -1.000000
vn 1.000000 0.000000 0.000000
vn 0.000000 0.000000 1.000000
vn -1.000000 -0.000000 0.000000
vn 0.000000 -1.000000 0.000000
vn -0.000000 1.000000 0.000000
usemtl None
s off
f 25//7 26//7 27//7
f 26//8 28//8 29//8
f 28//9 30//9 31//9
f 30//10 25//10 32//10
f 27//11 29//11 32//11
f 26//12 25//12 28//12
f 26//7 29//7 27//7
f 28//8 31//8 29//8
f 30//9 32//9 31//9
f 25//10 27//10 32//10
f 29//11 31//11 32//11
f 25//12 30//12 28//12
